
      <svg data-logo="logo" xmlns="http://www.w3.org/2000/svg" viewBox="0 0 96 29">
        <g id="logogram" transform="translate(0, 14.5) rotate(0) "></g>
        <g id="logotype" transform="translate(0, 1)"><path fill="#1d329a" d="M11.64 27.38L11.64 27.38Q8.58 27.38 6.31 26.44Q4.05 25.50 2.79 23.65Q1.52 21.80 1.45 19.10L1.45 19.10L6.53 19.10Q6.63 20.39 7.30 21.25Q7.96 22.11 9.07 22.54Q10.19 22.97 11.59 22.97L11.59 22.97Q12.99 22.97 14.02 22.57Q15.06 22.16 15.64 21.43Q16.22 20.69 16.22 19.72L16.22 19.72Q16.22 18.85 15.70 18.26Q15.18 17.67 14.20 17.24Q13.23 16.81 11.83 16.49L11.83 16.49L9.02 15.79Q5.79 15.00 3.96 13.32Q2.14 11.64 2.14 8.87L2.14 8.87Q2.14 6.56 3.38 4.83Q4.61 3.11 6.78 2.15Q8.94 1.19 11.71 1.19L11.71 1.19Q14.53 1.19 16.63 2.16Q18.73 3.13 19.91 4.84Q21.09 6.56 21.12 8.80L21.12 8.80L16.08 8.80Q15.94 7.26 14.77 6.42Q13.60 5.59 11.66 5.59L11.66 5.59Q10.34 5.59 9.40 5.96Q8.46 6.34 7.96 7.00Q7.47 7.67 7.47 8.53L7.47 8.53Q7.47 9.47 8.04 10.09Q8.61 10.71 9.54 11.10Q10.48 11.48 11.55 11.74L11.55 11.74L13.86 12.30Q15.47 12.66 16.85 13.28Q18.23 13.89 19.28 14.79Q20.32 15.69 20.89 16.92Q21.46 18.15 21.46 19.75L21.46 19.75Q21.46 22.06 20.30 23.78Q19.14 25.50 16.94 26.44Q14.73 27.38 11.64 27.38ZM27.96 15.94L27.96 15.94L27.96 27L22.83 27L22.83 1.54L27.85 1.54L27.85 12.66L27.44 12.66Q28.20 10.27 29.73 8.96Q31.26 7.65 33.68 7.65L33.68 7.65Q35.66 7.65 37.14 8.52Q38.62 9.38 39.43 11.00Q40.24 12.61 40.24 14.85L40.24 14.85L40.24 27L35.12 27L35.12 15.74Q35.12 13.96 34.20 12.95Q33.29 11.94 31.67 11.94L31.67 11.94Q30.59 11.94 29.74 12.41Q28.90 12.88 28.43 13.77Q27.96 14.66 27.96 15.94ZM47.68 27.38L47.68 27.38Q45.87 27.38 44.42 26.74Q42.98 26.09 42.15 24.82Q41.32 23.55 41.32 21.65L41.32 21.65Q41.32 20.06 41.91 18.98Q42.50 17.91 43.52 17.26Q44.53 16.61 45.82 16.27Q47.11 15.93 48.53 15.79L48.53 15.79Q50.19 15.62 51.21 15.47Q52.22 15.33 52.69 15.01Q53.16 14.70 53.16 14.08L53.16 14.08L53.16 13.99Q53.16 13.17 52.82 12.61Q52.48 12.05 51.81 11.75Q51.15 11.45 50.17 11.45L50.17 11.45Q49.18 11.45 48.45 11.75Q47.71 12.05 47.25 12.54Q46.79 13.04 46.57 13.65L46.57 13.65L41.87 12.87Q42.36 11.21 43.51 10.05Q44.65 8.88 46.35 8.27Q48.05 7.65 50.17 7.65L50.17 7.65Q51.73 7.65 53.18 8.02Q54.63 8.39 55.79 9.16Q56.94 9.93 57.61 11.16Q58.29 12.39 58.29 14.13L58.29 14.13L58.29 27L53.44 27L53.44 24.35L53.26 24.35Q52.80 25.24 52.03 25.91Q51.27 26.59 50.18 26.98Q49.10 27.38 47.68 27.38ZM49.13 23.77L49.13 23.77Q50.34 23.77 51.26 23.29Q52.17 22.81 52.68 21.99Q53.20 21.17 53.20 20.16L53.20 20.16L53.20 18.10Q52.97 18.27 52.51 18.40Q52.05 18.54 51.49 18.64Q50.92 18.75 50.38 18.83Q49.83 18.92 49.40 18.97L49.40 18.97Q48.46 19.10 47.74 19.41Q47.03 19.72 46.63 20.22Q46.24 20.73 46.24 21.51L46.24 21.51Q46.24 22.25 46.62 22.75Q46.99 23.26 47.63 23.51Q48.27 23.77 49.13 23.77ZM60.39 1.54L65.52 1.54L65.52 27L60.39 27L60.39 1.54ZM65.75 7.89L78.23 7.89L78.23 11.81L65.75 11.81L65.75 7.89ZM74.23 27L69.12 27L69.12 6.42Q69.12 4.39 69.93 3.04Q70.74 1.69 72.15 1.01Q73.55 0.34 75.32 0.34L75.32 0.34Q76.54 0.34 77.54 0.54Q78.54 0.73 79.00 0.87L79.00 0.87L78.08 4.73Q77.75 4.65 77.31 4.56Q76.88 4.48 76.37 4.48L76.37 4.48Q75.20 4.48 74.72 5.03Q74.23 5.59 74.23 6.59L74.23 6.59L74.23 27ZM84.58 27.38L84.58 27.38Q82.77 27.38 81.33 26.74Q79.88 26.09 79.06 24.82Q78.23 23.55 78.23 21.65L78.23 21.65Q78.23 20.06 78.82 18.98Q79.41 17.91 80.42 17.26Q81.44 16.61 82.73 16.27Q84.02 15.93 85.44 15.79L85.44 15.79Q87.10 15.62 88.11 15.47Q89.13 15.33 89.60 15.01Q90.07 14.70 90.07 14.08L90.07 14.08L90.07 13.99Q90.07 13.17 89.73 12.61Q89.39 12.05 88.72 11.75Q88.05 11.45 87.08 11.45L87.08 11.45Q86.09 11.45 85.35 11.75Q84.62 12.05 84.16 12.54Q83.70 13.04 83.47 13.65L83.47 13.65L78.77 12.87Q79.27 11.21 80.41 10.05Q81.56 8.88 83.26 8.27Q84.96 7.65 87.08 7.65L87.08 7.65Q88.63 7.65 90.09 8.02Q91.54 8.39 92.69 9.16Q93.85 9.93 94.52 11.16Q95.20 12.39 95.20 14.13L95.20 14.13L95.20 27L90.34 27L90.34 24.35L90.17 24.35Q89.71 25.24 88.94 25.91Q88.17 26.59 87.09 26.98Q86.00 27.38 84.58 27.38ZM86.04 23.77L86.04 23.77Q87.25 23.77 88.16 23.29Q89.08 22.81 89.59 21.99Q90.10 21.17 90.10 20.16L90.10 20.16L90.10 18.10Q89.88 18.27 89.42 18.40Q88.96 18.54 88.40 18.64Q87.83 18.75 87.28 18.83Q86.74 18.92 86.31 18.97L86.31 18.97Q85.37 19.10 84.65 19.41Q83.94 19.72 83.54 20.22Q83.15 20.73 83.15 21.51L83.15 21.51Q83.15 22.25 83.52 22.75Q83.90 23.26 84.54 23.51Q85.18 23.77 86.04 23.77Z"/></g>
        
      </svg>
    